<svg width="83" height="83" viewBox="0 0 83 83" fill="none" xmlns="http://www.w3.org/2000/svg">
<path fill-rule="evenodd" clip-rule="evenodd" d="M41.1429 82.5065C63.8654 82.5065 82.2857 64.0862 82.2857 41.3636C82.2857 18.6411 63.8654 0.220779 41.1429 0.220779C18.4203 0.220779 0 18.6411 0 41.3636C0 64.0862 18.4203 82.5065 41.1429 82.5065ZM1.25628 41.1736C7.5875 34.4603 24.7886 21.0336 40.3369 21.0336C55.8852 21.0336 73.7598 34.4603 80.7536 41.1736V41.5537C74.4224 48.267 57.8729 61.6937 42.3246 61.6936C26.7763 61.6936 8.25006 47.887 1.25628 41.1736Z" fill="#F3F5F7"/>
<path fill-rule="evenodd" clip-rule="evenodd" d="M41.0382 56.5709C49.4948 56.5709 56.3502 49.7155 56.3502 41.2589C56.3502 32.8024 49.4948 25.947 41.0382 25.947C32.5817 25.947 25.7263 32.8024 25.7263 41.2589C25.7263 49.7155 32.5817 56.5709 41.0382 56.5709ZM41.0382 53.2683C47.6708 53.2683 53.0476 47.8915 53.0476 41.2589C53.0476 34.6263 47.6708 29.2496 41.0382 29.2496C34.4056 29.2496 29.0288 34.6263 29.0288 41.2589C29.0288 47.8915 34.4056 53.2683 41.0382 53.2683Z" fill="#F3F5F7"/>
<path fill-rule="evenodd" clip-rule="evenodd" d="M41.0382 56.5709C46.0126 56.5709 50.0452 49.7155 50.0452 41.2589C50.0452 32.8024 46.0126 25.947 41.0382 25.947C36.0637 25.947 32.0311 32.8024 32.0311 41.2589C32.0311 49.7155 36.0637 56.5709 41.0382 56.5709ZM40.9819 53.4973C44.9428 53.4973 48.1537 47.9928 48.1537 41.2027C48.1537 34.4126 44.9428 28.9081 40.9819 28.9081C37.021 28.9081 33.8101 34.4126 33.8101 41.2027C33.8101 47.9928 37.021 53.4973 40.9819 53.4973Z" fill="#F3F5F7"/>
<path fill-rule="evenodd" clip-rule="evenodd" d="M56.3502 41.259C56.3502 36.2845 49.4948 32.2519 41.0382 32.2519C32.5817 32.2519 25.7263 36.2845 25.7263 41.259C25.7263 46.2334 32.5817 50.266 41.0382 50.266C49.4948 50.266 56.3502 46.2334 56.3502 41.259ZM53.2765 41.2027C53.2765 37.2418 47.772 34.0309 40.9819 34.0309C34.1918 34.0309 28.6874 37.2418 28.6874 41.2027C28.6874 45.1636 34.1918 48.3745 40.9819 48.3745C47.772 48.3745 53.2765 45.1636 53.2765 41.2027Z" fill="#F3F5F7"/>
<rect x="39.9573" y="26.859" width="2.0491" height="28.6873" fill="#F3F5F7"/>
<rect x="25.6137" y="42.2272" width="2.04909" height="30.7364" transform="rotate(-90 25.6137 42.2272)" fill="#F3F5F7"/>
</svg>
